<?xml version="1.0" encoding="utf-8"?>
<!-- Generator: Adobe Illustrator 19.0.0, SVG Export Plug-In . SVG Version: 6.00 Build 0)  -->
<svg version="1.1" id="Layer_1" xmlns="http://www.w3.org/2000/svg" xmlns:xlink="http://www.w3.org/1999/xlink" x="0px" y="0px"
	 viewBox="0 0 55.7 18.2" style="enable-background:new 0 0 55.7 18.2;" xml:space="preserve">
<style type="text/css">
	.st0{fill:#FFFFFF;}
</style>
<g id="XMLID_15_">
	<path id="XMLID_16_" class="st0" d="M3,0c0.3,0,0.4,0.4,0.4,1.2h0.4l0.6-0.4L4.6,1l-1,11.2c0.8-0.4,3.1-0.9,6.8-1.4h0.2V11
		c-4.6,0.8-7,1.4-7,1.8l2.2-0.6v0.2l3.8-0.8v0.2l0.2-0.2H10l0.2,0.2l1-0.2H12l1.4,0.2V12c0,0.4-1,0.7-3,1v0.2l0.2-0.2h0.2l1.4,0.2
		l0.2-0.2v0.6l-6.6,1.6l-4.2,1.6H1l-0.8-1H0v-0.2c0-0.3,0.3-0.5,0.8-0.6v-0.6l-0.6-0.8l0.8-9h0.2v0.8L1,6.8h0.4L1,9.4l0.2,0.2
		L1,10.4v1h0.2L2,0.8c0.3,0,0.4-0.2,0.4-0.6L2.6,0H3z"/>
	<path id="XMLID_18_" class="st0" d="M21.3,0.1c1.6,0,3,0.5,4.4,1.4l-0.2,0.2v0.2L26.3,3h-0.4l-0.2-0.2h-0.2l0.6,4.4h0.2
		c0-0.7,0.1-1,0.4-1V7c0,0.8-0.7,2.5-2,5.2h0.2c-0.9,1.3-2.3,2.5-4.2,3.6l-1,0.2h-0.2c-3.2,0-5.1-1.3-6-3.8L12.7,11l0.2-0.2
		l-0.2-1.4V9c0-1.1,1.1-3,3.2-5.8v0.2c-1,1.3-1.8,2.8-2.4,4.4V8h0.2c0.5-1.9,2.3-4.4,5.4-7.4l-1.4,0.8h-0.2
		C17.5,0.8,18.8,0.4,21.3,0.1z M13.3,9v1.6h0.2V9H13.3z M15.9,6.2l-0.6,1.2h0.2l0.6-1.2H15.9z M20.3,3.4l-0.2-0.2v0.2l0.2,0.2
		l-1.4,1.2c-1.1,0-2.2,1.9-3.2,5.6c0,1.1,0.6,2,1.8,2.8h0.2c1.5,0,3.1-1.5,5-4.6c0.7-1.5,1-2.5,1-3.2V3.8c0-0.4-0.7-0.6-2-0.8h-0.2
		l-0.2,0.2h-0.2V3L20.3,3.4z M16.3,14v0.2l1,0.6v-0.2L16.3,14z M22.7,9.6l-0.8,1h0.2l0.8-1H22.7z M23.7,7.4l-0.8,2h0.6L24.1,8
		l-0.2-0.6H23.7z M25.1,8.2l-0.2,0.6v0.4h0.2l0.2-0.8V8.2H25.1z M26.1,4h0.4v1h-0.4V4z"/>
	<path id="XMLID_28_" class="st0" d="M35.5,0.4l0.2,0.2h0.2l0-0.2C38.1,1,39.1,1.8,39,2.8L39.3,4h-0.4c0.1-0.5-0.1-0.8-0.3-0.8h-0.2
		l0.1,1l0,0.2h-0.4c-0.3,0-0.4-0.2-0.3-0.6L37.5,4h-0.2c-0.7-0.5-1.3-0.8-1.9-0.8c-1.3,0-2.9,1.4-4.6,4.2l-0.6,2.2
		c-0.2,1.8,0.5,3,2.2,3.8l0,0.4h-0.4l0,0.2h0.4c0.9,0,2.3-1.2,4.2-3.6l0-0.2h-0.2c-1.1,1.3-2,2.2-2.9,2.8h-0.2l2.5-2.6h-1.4
		c0-0.3-0.2-0.4-0.6-0.4l-0.2-0.2l0-0.2c0-0.3,0.7-0.5,2.1-0.6l0-0.4l-0.2,0.2h-1.2l-1-1.4l0.2-0.2l0-0.2l2.2,0.2l5.2-0.6l0-0.2
		c-0.7,0-1-0.1-0.9-0.4h0.2l0.2,0.2L40.5,6h0.2c1.4,0.4,2.1,0.7,2.1,1l0,0.2l-0.2,0.2l0,0.2h0.8l0,0.4H43l-3.2,0.4l0,0.2H40l1.8-0.2
		l0,0.4c-1.3,0-2.1,0.5-2.2,1.6l-0.9,3.2l0.2,0.2l0,0.2l-0.3,1l0,1.6L38.1,17l0.2,0.2c-0.5,0.2-0.8,0.5-0.9,1h-0.6
		c-0.3,0-0.3-0.6-0.2-1.8h-0.2l-0.2,1.4h-0.6l0.1-1l0-1.4h-0.4c-0.8,0.5-1.5,0.8-2.3,0.8h-1l-0.3-0.4l0-0.2h0.4l0-0.2
		c-2.8,0-4.3-0.9-4.5-2.8c-0.2-0.9-0.2-1.7-0.2-2.6c0-0.5,0-1.1,0.1-1.6l0-0.4c0.1-1,0.6-2.3,1.4-4h0.2l0,0.4l-0.8,1.4l0,0.2h0.2
		c0.1-1.2,1.4-2.7,3.9-4.6h0.2l0-0.2h-0.2l-0.6,0.2C32.2,0.8,33.4,0.4,35.5,0.4z M30,3l0,0.2L29.1,4l0-0.2L30,3z M31.4,1.6h0.2L30,3
		l0-0.2L31.4,1.6z M32.5,15.6l0,0.2h1l0-0.2H32.5z M32.9,13h0.2l-0.4,0.4h-0.2L32.9,13z M33.9,15l1.7-0.8l0-0.4h-0.2L33.9,15z
		 M34.3,2l0,0.2h1.4l0-0.2H34.3z M38.9,6.2h0.8l-0.4,0.4L38.9,6.2z"/>
	<path id="XMLID_37_" class="st0" d="M50.3,0.1c1.6,0,3,0.5,4.4,1.4l-0.2,0.2v0.2L55.3,3h-0.4l-0.2-0.2h-0.2l0.6,4.4h0.2
		c0-0.7,0.1-1,0.4-1V7c0,0.8-0.7,2.5-2,5.2h0.2c-0.9,1.3-2.3,2.5-4.2,3.6l-1,0.2h-0.2c-3.2,0-5.1-1.3-6-3.8L41.8,11l0.2-0.2
		l-0.2-1.4V9c0-1.1,1.1-3,3.2-5.8v0.2c-1,1.3-1.8,2.8-2.4,4.4V8h0.2c0.5-1.9,2.3-4.4,5.4-7.4l-1.4,0.8h-0.2
		C46.6,0.8,47.8,0.4,50.3,0.1z M42.4,9v1.6h0.2V9H42.4z M45,6.2l-0.6,1.2h0.2l0.6-1.2H45z M49.3,3.4l-0.2-0.2v0.2l0.2,0.2L48,4.8
		c-1.1,0-2.2,1.9-3.2,5.6c0,1.1,0.6,2,1.8,2.8h0.2c1.5,0,3.1-1.5,5-4.6c0.7-1.5,1-2.5,1-3.2V3.8c0-0.4-0.7-0.6-2-0.8h-0.2l-0.2,0.2
		h-0.2V3L49.3,3.4z M45.4,14v0.2l1,0.6v-0.2L45.4,14z M51.7,9.6l-0.8,1h0.2l0.8-1H51.7z M52.7,7.4l-0.8,2h0.6L53.1,8l-0.2-0.6H52.7z
		 M54.1,8.2l-0.2,0.6v0.4h0.2l0.2-0.8V8.2H54.1z M55.1,4h0.4v1h-0.4V4z"/>
</g>
<g id="XMLID_59_">
</g>
<g id="XMLID_60_">
</g>
<g id="XMLID_61_">
</g>
<g id="XMLID_62_">
</g>
<g id="XMLID_63_">
</g>
<g id="XMLID_64_">
</g>
<g id="XMLID_65_">
</g>
<g id="XMLID_66_">
</g>
<g id="XMLID_67_">
</g>
<g id="XMLID_68_">
</g>
<g id="XMLID_69_">
</g>
<g id="XMLID_70_">
</g>
<g id="XMLID_71_">
</g>
<g id="XMLID_72_">
</g>
<g id="XMLID_73_">
</g>
</svg>
